<?xml version="1.0" standalone="no"?>
<!DOCTYPE svg PUBLIC "-//W3C//DTD SVG 20010904//EN"
 "http://www.w3.org/TR/2001/REC-SVG-20010904/DTD/svg10.dtd">
<svg version="1.0" xmlns="http://www.w3.org/2000/svg"
 width="700.000000pt" height="700.000000pt" viewBox="0 0 700.000000 700.000000"
 preserveAspectRatio="xMidYMid meet">
<metadata>
Created by potrace 1.11, written by Peter Selinger 2001-2013
</metadata>
<g transform="translate(0.000000,700.000000) scale(0.100000,-0.100000)"
fill="#000000" stroke="none">
<path d="M3536 6993 c-4 -5 -71 -8 -149 -9 -124 -1 -240 -8 -295 -19 -9 -1
-37 -6 -62 -10 -72 -11 -236 -54 -293 -76 -257 -100 -509 -327 -632 -569 -30
-59 -65 -159 -81 -229 -12 -53 -12 -247 1 -311 33 -170 71 -248 167 -343 l69
-69 71 6 c38 3 73 8 76 10 4 2 32 7 62 11 30 4 156 40 280 80 124 41 264 86
313 100 48 14 87 30 87 34 0 14 -45 50 -72 56 -27 7 -27 7 30 56 69 58 88 80
131 142 38 56 77 145 67 154 -4 4 -26 2 -49 -4 -23 -6 -43 -11 -44 -9 -1 1 6
29 16 61 10 33 22 89 25 125 29 278 153 613 299 808 10 13 -4 17 -17 5z m-276
-119 c0 -4 -15 -30 -34 -58 -87 -131 -136 -259 -163 -421 -10 -64 -83 -333
-107 -395 -73 -193 -170 -315 -331 -417 -77 -48 -304 -159 -310 -151 -121 172
-173 341 -162 526 8 129 12 151 56 264 92 234 300 456 523 557 131 60 279 92
449 99 44 2 79 0 79 -4z"/>
<path d="M2798 6285 c-1 -1 -29 -6 -61 -9 -73 -9 -128 -28 -189 -67 -51 -33
-121 -106 -150 -157 l-18 -30 51 -12 c56 -14 143 -8 165 11 27 22 14 2 -25
-39 -77 -80 -136 -205 -145 -305 -4 -37 -1 -49 11 -54 22 -8 115 23 191 64
122 67 168 135 293 438 32 77 57 141 56 142 -1 1 -36 5 -77 8 -41 4 -80 8 -87
10 -6 2 -13 2 -15 0z"/>
<path d="M1381 6874 c-11 -14 -46 -42 -78 -63 -126 -81 -269 -216 -361 -339
-148 -200 -216 -499 -167 -737 30 -141 90 -250 197 -356 79 -77 146 -114 242
-135 68 -15 81 -16 101 -3 65 40 153 138 300 334 54 72 114 149 133 172 24 31
30 44 21 47 -38 12 -46 12 -68 4 -18 -7 -22 -5 -18 6 30 76 42 233 24 294 -12
39 -21 40 -51 5 l-23 -26 -17 53 c-10 29 -34 83 -55 119 -45 81 -83 181 -116
309 -30 117 -38 174 -39 269 -1 40 -2 73 -3 73 -1 0 -11 -12 -22 -26z m-113
-252 c2 -99 22 -193 58 -282 205 -497 212 -626 49 -925 -69 -127 -60 -121
-130 -89 -259 117 -399 350 -389 648 1 56 6 115 9 131 4 17 8 39 10 50 10 77
86 232 153 315 51 63 139 146 191 181 25 16 45 29 46 29 1 0 2 -26 3 -58z"/>
<path d="M1314 6129 c-58 -31 -139 -96 -170 -136 -15 -19 -35 -57 -45 -84 -20
-51 -31 -159 -19 -179 11 -18 86 17 119 57 l28 34 -7 -44 c-13 -88 5 -194 46
-264 14 -24 27 -43 29 -43 3 0 27 32 55 72 94 134 99 196 34 488 -14 63 -26
116 -28 117 -1 1 -20 -7 -42 -18z"/>
<path d="M1908 5305 c-2 -1 -41 -5 -88 -8 -255 -17 -477 -102 -605 -231 -116
-116 -195 -320 -210 -539 -9 -129 -5 -310 10 -427 3 -25 8 -67 11 -95 8 -75
52 -341 68 -415 30 -136 30 -138 -7 -145 -70 -14 -206 -59 -272 -89 -99 -46
-137 -84 -142 -144 -7 -82 40 -131 152 -157 57 -14 237 -17 307 -6 26 4 51 5
57 2 7 -5 94 -353 127 -506 4 -23 9 -42 25 -105 6 -25 13 -54 15 -65 8 -38 12
-61 49 -225 64 -293 99 -467 120 -600 3 -19 10 -60 15 -90 5 -30 12 -80 16
-110 3 -30 8 -58 10 -61 2 -3 6 -34 10 -70 3 -35 8 -67 10 -71 3 -4 7 -53 10
-110 6 -95 5 -108 -18 -165 -36 -90 -86 -162 -115 -169 -17 -5 -61 8 -142 39
-199 79 -223 86 -310 84 -62 -2 -83 -6 -100 -21 -43 -39 -18 -90 74 -153 48
-33 362 -188 456 -226 91 -37 221 -74 291 -82 22 -3 44 -7 47 -9 14 -9 175
-20 301 -20 l135 -1 95 -46 c143 -71 384 -160 496 -184 317 -68 415 -79 669
-79 164 -1 293 8 355 24 19 5 48 11 64 14 101 18 285 94 389 160 320 205 541
546 651 1006 15 64 18 79 30 150 11 69 17 116 21 180 5 69 14 160 21 225 17
142 80 352 137 455 118 215 203 295 588 555 278 188 459 316 459 324 0 3 -14
15 -30 26 l-29 21 27 29 c42 47 106 127 127 160 10 17 25 40 33 52 l14 22 -74
-6 c-141 -12 -397 -7 -533 11 -73 10 -133 18 -165 21 -43 5 -296 43 -330 50
-14 3 -54 10 -89 16 l-63 11 112 60 c61 33 109 62 107 64 -25 25 -592 24 -767
0 -19 -3 -55 -8 -80 -11 -67 -9 -266 -53 -335 -74 -397 -123 -676 -332 -835
-626 -108 -201 -187 -489 -194 -712 -6 -182 15 -299 111 -618 24 -82 47 -161
49 -174 3 -13 11 -49 17 -80 40 -180 -30 -332 -218 -471 -104 -77 -287 -150
-375 -150 -27 0 -27 1 -19 43 4 23 7 102 7 176 -2 161 -27 337 -97 661 -28
129 -62 287 -75 350 -14 63 -28 131 -31 150 -3 19 -10 49 -15 65 -5 17 -12 46
-15 65 -7 38 -50 240 -65 305 -6 22 -12 51 -14 65 -3 14 -23 108 -45 210 -23
102 -44 196 -46 210 -7 39 -12 60 -29 133 -17 74 -20 108 -8 105 4 -1 21 1 37
5 17 4 39 9 50 12 50 11 331 76 340 79 172 46 290 116 330 195 33 65 15 168
-38 214 -50 43 -195 53 -330 22 -40 -9 -79 -18 -87 -20 -8 -2 -89 -21 -180
-43 -91 -22 -179 -42 -196 -45 l-31 -6 -16 87 c-9 48 -24 121 -32 162 -8 41
-18 88 -21 104 -2 16 -7 32 -9 35 -2 4 -6 25 -9 47 -7 45 -11 67 -27 143 -6
30 -12 64 -14 75 -2 12 -8 55 -15 96 -22 147 -13 335 18 354 18 11 58 -32 111
-118 74 -121 122 -166 194 -182 46 -11 145 -4 219 15 188 48 295 147 349 321
19 61 23 99 23 205 1 114 -2 135 -21 170 -11 22 -29 48 -40 57 -43 39 -152 38
-180 -2 -32 -46 -150 -50 -268 -11 -122 40 -214 60 -306 66 -52 4 -109 8 -126
9 -18 2 -34 2 -35 1z m2893 -1795 c-34 -15 -66 -31 -72 -37 -6 -6 32 -17 108
-31 138 -26 152 -28 218 -42 74 -14 269 -47 360 -60 44 -6 93 -13 109 -16 15
-3 49 -7 75 -9 25 -3 64 -7 86 -10 67 -10 94 -13 250 -20 83 -4 152 -9 154
-11 3 -2 -4 -12 -15 -22 -11 -9 -38 -34 -61 -54 l-42 -37 21 -26 c11 -15 17
-30 12 -34 -19 -16 -127 -90 -334 -230 -288 -193 -311 -212 -485 -381 -187
-182 -213 -203 -411 -333 -93 -61 -186 -131 -221 -167 l-61 -61 -27 28 c-38
40 -83 132 -100 205 -14 60 -15 227 -2 288 3 14 8 45 12 69 l6 44 -47 -52
c-26 -29 -127 -113 -223 -186 -97 -73 -209 -160 -248 -194 -40 -34 -77 -61
-82 -61 -5 0 -21 24 -35 53 -98 200 -76 493 63 826 17 41 31 75 31 78 0 2 -12
1 -27 -2 -16 -3 -39 -7 -53 -10 -40 -8 -147 -40 -255 -78 -55 -19 -102 -34
-104 -32 -8 9 98 146 164 210 161 158 371 270 645 343 41 11 91 23 110 26 64
10 95 17 107 21 7 2 45 7 85 11 40 3 76 8 79 10 4 2 60 6 125 10 66 4 121 8
123 10 2 2 8 1 13 -3 6 -3 -18 -18 -51 -33z"/>
</g>
</svg>
